<svg class="svg-icon" style="width: 1em;height: 1em;vertical-align: middle;fill: currentColor;overflow: hidden;" viewBox="0 0 1024 1024" version="1.1" xmlns="http://www.w3.org/2000/svg"><path d="M992.015059 133.842824h-116.073412a31.744 31.744 0 0 0-31.984941 31.382588v40.176941L181.669647 448.150588v-16.263529a47.585882 47.585882 0 0 0-48.007529-47.043765H48.007529A47.585882 47.585882 0 0 0 0 431.887059v282.383059c0 25.840941 21.564235 47.043765 48.007529 47.043764h85.654589a47.706353 47.706353 0 0 0 48.007529-47.043764v-19.937883l62.283294 11.384471a211.184941 211.184941 0 0 0-2.288941 29.575529c0 114.266353 94.027294 207.269647 209.558588 207.269647a207.088941 207.088941 0 0 0 203.595294-161.551058l189.138824 34.695529v39.695059c0 17.287529 14.396235 31.382588 31.984941 31.382588h116.073412a31.744 31.744 0 0 0 31.984941-31.382588V165.225412a31.744 31.744 0 0 0-31.984941-31.382588zM451.222588 882.326588c-82.341647 0-149.323294-65.957647-149.323294-147.034353 0-6.264471 1.626353-12.348235 2.409412-18.55247l291.538823 53.488941a147.516235 147.516235 0 0 1-144.624941 112.097882zM963.764706 826.548706h-59.572706v-61.018353L121.434353 621.989647v79.028706H60.235294v-256h61.199059v89.389176l782.757647-286.900705v-53.428706H963.764706v632.470588z"  /></svg>